<?xml version="1.0" standalone="no"?><!DOCTYPE svg PUBLIC "-//W3C//DTD SVG 1.1//EN" "http://www.w3.org/Graphics/SVG/1.1/DTD/svg11.dtd"><svg t="1746371583910" class="icon" viewBox="0 0 1024 1024" version="1.1" xmlns="http://www.w3.org/2000/svg" p-id="75994" xmlns:xlink="http://www.w3.org/1999/xlink" width="200" height="200"><path d="M243.616 650.08l113.696-214.288 42.4 22.496-113.696 214.272zM625.088 569.92l113.696-214.272 42.4 22.496-113.68 214.288zM455.248 455.472l42.656-21.984 67.36 130.704-42.672 21.984z" fill="#2A2C2C" p-id="75995"></path><path d="M221.12 743.52m-71.04 0a71.04 71.04 0 1 0 142.08 0 71.04 71.04 0 1 0-142.08 0Z" fill="#2A2C2C" p-id="75996"></path><path d="M588.32 590.24c-39.2 0-71.04 31.84-71.04 71.04s31.84 71.2 71.04 71.2a71.12 71.12 0 0 0 0-142.24zM496.64 363.2c0-39.2-31.84-71.2-71.04-71.2a71.12 71.12 0 0 0 0 142.24c39.2 0 71.04-31.84 71.04-71.04z" fill="#2A2C2C" p-id="75997"></path><path d="M802.88 280.48m-71.04 0a71.04 71.04 0 1 0 142.08 0 71.04 71.04 0 1 0-142.08 0Z" fill="#2A2C2C" p-id="75998"></path></svg>