<?xml version="1.0" encoding="UTF-8" standalone="no"?>
<!-- Created with Inkscape (http://www.inkscape.org/) -->

<svg
   version="1.1"
   id="svg2"
   width="1152"
   height="576"
   viewBox="0 0 1152 576"
   xmlns="http://www.w3.org/2000/svg"
   xmlns:svg="http://www.w3.org/2000/svg">
  <defs
     id="defs6">
    <clipPath
       clipPathUnits="userSpaceOnUse"
       id="clipPath18">
      <path
         d="M 108,172.8 H 777.6 V 380.16 H 108 Z"
         id="path16" />
    </clipPath>
  </defs>
  <g
     id="g8"
     transform="matrix(1.3333333,0,0,-1.3333333,0,576)">
    <path
       d="M 0,0 H 864 V 432 H 0 Z"
       style="fill:#ffffff;fill-opacity:1;fill-rule:nonzero;stroke:none"
       id="path10" />
    <g
       id="g12">
      <g
         id="g14"
         clip-path="url(#clipPath18)">
        <path
           d="m 108,339.46049 2.6784,-0.21503 2.6784,1.00729 2.6784,2.36861 5.3568,-0.72828 2.6784,2.45599 2.6784,1.19351 2.6784,-0.73012 2.6784,0.84379 5.3568,-1.44501 2.6784,0.3763 2.6784,-2.97554 2.6784,-2.68259 2.6784,-0.87447 2.6784,-1.57515 2.6784,0.48871 2.6784,-1.41216 2.6784,-2.19641 2.6784,2.27938 2.6784,-0.35113 2.6784,0.10502 2.6784,-2.21577 2.6784,-0.84662 2.6784,0.1725 2.6784,-1.79002 2.6784,0.58428 2.6784,-0.93411 2.6784,-0.45364 2.6784,-0.93578 2.6784,2.88067 2.6784,-0.021 2.6784,-1.64496 2.6784,1.27923 2.6784,-1.89866 2.6784,0.32482 2.6784,-3.04767 2.6784,-2.0656 2.6784,0.30616 2.6784,1.14846 2.6784,0.26651 2.6784,-0.17985 2.6784,-0.46828 2.6784,-2.29939 2.6784,-1.11951 2.6784,-0.71638 2.6784,1.64403 2.6784,0.5344 2.6784,-2.74188 2.6784,0.50402 2.6784,-0.59888 2.6784,-1.05276 2.6784,0.95128 2.6784,1.60341 2.6784,1.44833 2.6784,-1.30515 2.6784,-0.48089 2.6784,0.51518 2.6784,1.51717 2.6784,-0.74521 2.6784,-0.28874 2.6784,-1.72057 2.6784,-1.86034 2.6784,1.26364 2.6784,2.10923 2.6784,-0.112 2.6784,1.5607 2.6784,0.56242 2.6784,-1.00329 2.6784,0.56204 2.6784,2.39195 2.6784,-0.0557 2.6784,2.43333 2.6784,-4.07423 2.6784,1.27822 2.6784,0.13538 2.6784,-0.46502 2.6784,0.14271 2.6784,-3.09107 2.6784,-0.34163 2.6784,0.55538 2.6784,2.29842 2.6784,-0.80601 2.6784,-1.25737 2.6784,-0.78033 2.6784,1.42363 2.6784,0.51127 2.6784,-0.82388 2.6784,0.79823 2.6784,0.15098 2.6784,1.50644 2.6784,-1.09184 5.3568,-1.11938 2.6784,-2.27606 5.3568,0.86652 2.6784,0.008 2.6784,-0.36483 2.6784,-2.20119 2.6784,-0.65418 2.6784,-0.53299 2.6784,-1.2477 2.6784,-0.25083 2.6784,0.62837 2.6784,2.9334 2.6784,0.2715 2.6784,0.40055 2.6784,-0.11578 2.6784,-2.98407 2.6784,-0.0412 2.6784,0.0937 2.6784,3.83083 2.6784,-0.29916 2.6784,0.46897 2.6784,-0.054 2.6784,-1.81753 2.6784,1.77732 5.3568,2.39962 2.6784,-1.41428 2.6784,2.18162 2.6784,-2.18016 2.6784,0.91268 2.6784,3.4066 2.6784,-1.54048 2.6784,-0.88071 2.6784,0.15498 2.6784,-0.783 2.6784,-2.4116 2.6784,0.10663 2.6784,-1.65209 2.6784,0.73653 2.6784,-1.42989 2.6784,2.41046 2.6784,-1.21812 2.6784,-0.50087 2.6784,1.26518 2.6784,-1.91424 2.6784,0.35375 2.6784,2.03287 2.6784,-2.49996 2.6784,0.28714 2.6784,0.40417 2.6784,1.21589 5.3568,-3.97728 2.6784,0.81173 8.0352,1.39023 2.6784,-1.05757 5.3568,0.81698 2.6784,-1.11095 2.6784,2.90165 2.6784,0.7369 2.6784,-1.85271 2.6784,1.02107 2.6784,-1.51583 2.6784,1.22408 2.6784,1.80185 2.6784,-1.27633 2.6784,1.49824 2.6784,0.64196 2.6784,1.27847 2.6784,2.94989 2.6784,-0.38163 2.6784,-1.17221 5.3568,-2.65212 2.6784,-0.11991 5.3568,0.96087 2.6784,1.28644 2.6784,0.0202 2.6784,2.26053 2.6784,-0.41159 2.6784,4.23041 2.6784,0.97303 2.6784,-1.33305 2.6784,-1.66545 2.6784,0.75034 2.6784,-0.34753 2.6784,1.11042 2.6784,0.73598 2.6784,-0.11327 2.6784,-1.31693 2.6784,-2.35589 2.6784,-0.69442 2.6784,1.33187 2.6784,0.33296 2.6784,-1.93738 2.6784,0.26934 2.6784,0.59924 2.6784,-1.37457 2.6784,0.23907 2.6784,0.0905 2.6784,-1.77755 2.6784,0.55643 2.6784,0.87213 5.3568,3.32324 2.6784,-2.14255 2.6784,-1.45851 8.0352,2.40102 2.6784,5.99177 2.6784,0.88785 2.6784,1.76603 2.6784,1.48367 2.6784,1.01304 2.6784,-0.49031 2.6784,1.18035 2.6784,-1.20189 2.6784,-0.36831 2.6784,-0.75483 2.6784,0.12733 2.6784,3.59975 2.6784,-2.90397 2.6784,1.06728 2.6784,-2.5081 2.6784,-0.73395 2.6784,1.69354 2.6784,0.1 2.6784,-1.67611 2.6784,-1.11244 2.6784,1.05691 2.6784,-1.13587 2.6784,0.33664 2.6784,0.0709 2.6784,-1.01337 2.6784,3.33426 2.6784,0.98587 2.6784,-3.1495 2.6784,0.28998 2.6784,-1.02921 2.6784,1.3257 2.6784,-1.23253 2.6784,-0.17844 2.6784,0.78536 2.6784,1.34642 2.6784,-1.8667 2.6784,-0.52022 2.6784,-0.73863 2.6784,-1.01606 2.6784,2.74564 2.6784,0.62982 v 0"
           style="fill:none;stroke:#1f77b4;stroke-width:2;stroke-linecap:square;stroke-linejoin:round;stroke-miterlimit:10;stroke-dasharray:none;stroke-opacity:0.9"
           id="path20" />
      </g>
    </g>
  </g>
</svg>
