<?xml version="1.0" standalone="no"?><!DOCTYPE svg PUBLIC "-//W3C//DTD SVG 1.1//EN" "http://www.w3.org/Graphics/SVG/1.1/DTD/svg11.dtd"><svg t="1746435399115" class="icon" viewBox="0 0 1024 1024" version="1.1" xmlns="http://www.w3.org/2000/svg" p-id="14916" xmlns:xlink="http://www.w3.org/1999/xlink" width="200" height="200"><path d="M880.96224 738.56H220.48224a111.68 111.68 0 0 1 0 174.72h659.2a87.68 87.68 0 0 0 87.36-86.72 87.68 87.68 0 0 0-86.08-88zM38.40224 826.24a111.36 111.36 0 0 1 41.92-86.72A86.72 86.72 0 0 0 0.00224 825.6a87.04 87.04 0 0 0 79.36 86.08 112 112 0 0 1-40.96-85.44zM250.88224 197.76a111.36 111.36 0 0 1 42.56-87.04H87.04224A87.04 87.04 0 0 0 0.00224 197.44a87.36 87.36 0 0 0 87.04 88h206.08a112.64 112.64 0 0 1-42.24-87.68zM880.96224 110.72h-448a111.04 111.04 0 0 1 42.24 87.04 112.32 112.32 0 0 1-41.92 87.68h448a87.68 87.68 0 0 0 86.72-87.04 87.36 87.36 0 0 0-87.04-87.68z" fill="#0F9FBC" p-id="14917"></path><path d="M82.56224 826.24a68.48 68.48 0 1 0 68.16-68.48 68.16 68.16 0 0 0-68.16 68.48zM295.04224 197.76a68.48 68.48 0 1 0 68.16-68.16 68.48 68.48 0 0 0-68.16 68.16z" fill="#E2A069" p-id="14918"></path><path d="M536.00224 512a273.28 273.28 0 0 1 14.4-87.36H87.04224A87.36 87.36 0 0 0 0.00224 512a87.04 87.04 0 0 0 87.04 86.72H550.40224a270.4 270.4 0 0 1-14.4-86.72z" fill="#0F9FBC" p-id="14919"></path><path d="M812.16224 512m-211.84 0a211.84 211.84 0 1 0 423.68 0 211.84 211.84 0 1 0-423.68 0Z" fill="#E2A069" p-id="14920"></path><path d="M786.88224 387.84m24.96 0l0.32 0q24.96 0 24.96 24.96l0 198.72q0 24.96-24.96 24.96l-0.32 0q-24.96 0-24.96-24.96l0-198.72q0-24.96 24.96-24.96Z" fill="#FFFFFF" p-id="14921"></path><path d="M936.32224 487.04m0 24.96l0 0.32q0 24.96-24.96 24.96l-198.72 0q-24.96 0-24.96-24.96l0-0.32q0-24.96 24.96-24.96l198.72 0q24.96 0 24.96 24.96Z" fill="#FFFFFF" p-id="14922"></path></svg>