<?xml version="1.0" standalone="no"?><!DOCTYPE svg PUBLIC "-//W3C//DTD SVG 1.1//EN" "http://www.w3.org/Graphics/SVG/1.1/DTD/svg11.dtd"><svg t="1746369337764" class="icon" viewBox="0 0 1024 1024" version="1.1" xmlns="http://www.w3.org/2000/svg" p-id="40855" xmlns:xlink="http://www.w3.org/1999/xlink" width="200" height="200"><path d="M938.368 468.48a185.28 185.28 0 0 1-68.736 13.056c-24.32 0-47.616-4.672-68.928-13.184v200.512l-155.52 89.856c32.32 33.216 52.288 78.528 52.608 128.448l174.144-100.48q66.432-38.4 66.432-115.072V468.48z m-252.608-199.36L512.064 168.832 338.56 268.928a185.6 185.6 0 0 0-68.928-119.104L445.632 48.256q66.432-38.336 132.8 0l176.128 101.696a185.6 185.6 0 0 0-68.8 119.168z m-306.816 489.6a185.152 185.152 0 0 0-52.672 128.448l-174.144-100.48q-66.432-38.4-66.432-115.072V468.288c21.376 8.512 44.672 13.184 69.056 13.184 24.192 0 47.36-4.608 68.608-13.056v200.448l155.52 89.856zM516.096 500.032z m46.912 27.072v294.144h-94.08V526.976l-135.296-78.08-79.424-45.888-39.744-22.912 47.04-81.536L380.736 367.36l135.36 78.208 135.36-78.208 79.488-45.824 39.68-22.976 47.104 81.536-39.744 22.912-79.488 45.888-135.488 78.208z" p-id="40856" fill="#13227a"></path><path d="M958.4 384.448q36.736-36.736 36.736-88.704 0-51.968-36.736-88.768-36.8-36.736-88.768-36.736t-88.704 36.736q-36.8 36.8-36.8 88.768t36.8 88.704q36.736 36.8 88.704 36.8 51.968 0 88.768-36.8z m-62.08-115.328q11.008 11.008 11.008 26.624t-11.072 26.624q-11.008 11.008-26.624 11.008t-26.624-11.008Q832 311.36 832 295.744t11.008-26.624q11.008-11.072 26.624-11.072t26.624 11.072zM600.768 977.024q36.736-36.736 36.736-88.704 0-51.968-36.736-88.768Q563.968 762.88 512 762.88t-88.704 36.736q-36.8 36.8-36.8 88.768t36.8 88.704q36.736 36.8 88.704 36.8 51.968 0 88.768-36.8z m-62.08-115.328q11.008 11.008 11.008 26.624t-11.072 26.624q-11.008 11.008-26.624 11.008t-26.624-11.008q-11.008-11.008-11.008-26.624t11.008-26.624q11.008-11.072 26.624-11.072t26.624 11.072zM243.456 384.448q36.8-36.736 36.8-88.704 0-51.968-36.8-88.768-36.736-36.736-88.704-36.736-51.968 0-88.768 36.736-36.736 36.8-36.736 88.768t36.736 88.704q36.8 36.8 88.768 36.8t88.704-36.8z m-62.08-115.328q11.008 11.008 11.008 26.624t-11.008 26.624q-11.008 11.008-26.624 11.008t-26.624-11.008q-11.072-11.008-11.072-26.624t11.072-26.624q11.008-11.072 26.624-11.072t26.624 11.072z" p-id="40857" fill="#13227a"></path></svg>