<?xml version="1.0" standalone="no"?><!DOCTYPE svg PUBLIC "-//W3C//DTD SVG 1.1//EN" "http://www.w3.org/Graphics/SVG/1.1/DTD/svg11.dtd"><svg t="1746361352787" class="icon" viewBox="0 0 1024 1024" version="1.1" xmlns="http://www.w3.org/2000/svg" p-id="8154" xmlns:xlink="http://www.w3.org/1999/xlink" width="200" height="200"><path d="M56.888889 470.129778h55.296a121.514667 121.514667 0 0 0 35.745185-4.304593 73.121185 73.121185 0 0 0 26.832593-16.099555l16.118518-17.218371q10.069333-10.752 21.143704-24.746666t22.660741-28.444445q11.58637-14.52563 21.655703-27.439407 20.138667-26.908444 36.238223-20.992a42.230519 42.230519 0 0 1 24.158814 25.296592l44.297482 130.218667q34.228148-102.229333 60.416-185.097481 11.07437-35.51763 22.148741-69.404445t20.138666-62.407111q9.064296-28.444444 15.170371-47.407407t6.845629-24.310519a72.741926 72.741926 0 0 1 15.170371-29.601185 29.411556 29.411556 0 0 1 22.14874-11.377778 54.727111 54.727111 0 0 1 27.154963 8.173037 43.121778 43.121778 0 0 1 18.128593 32.824889q1.005037 6.447407 4.020148 34.436741t8.059259 69.95437q5.025185 41.965037 10.581334 93.089185t11.58637 103.841185q13.084444 123.752296 30.208 276.574815l40.277333-140.970666q7.054222-26.908444 14.601482-53.266963t14.089481-48.431408q6.542222-22.053926 10.581334-37.129481a149.276444 149.276444 0 0 1 6.049185-19.361185 73.955556 73.955556 0 0 1 12.079407-25.827556 35.896889 35.896889 0 0 1 19.13363-11.832889 31.250963 31.250963 0 0 1 34.740148 6.997333 41.965037 41.965037 0 0 1 11.58637 27.439408 90.756741 90.756741 0 0 1-2.010074 20.442074 33.659259 33.659259 0 0 0-1.005037 7.585185l36.238223 105.453037a31.952593 31.952593 0 0 0 3.015111-4.304592q3.015111-5.385481 10.069333-22.603852a41.927111 41.927111 0 0 1 26.680889-24.215704 97.412741 97.412741 0 0 1 35.745185-4.835556q11.07437 1.080889 22.148741 1.080889h46.269629v81.78726a68.778667 68.778667 0 0 1-12.079407 1.080889H934.874074a37.489778 37.489778 0 0 0-26.187852 8.078222 64.474074 64.474074 0 0 0-17.066666 17.749333q-4.020148 8.609185-14.089482 33.355852t-18.128593 50.574222a26.339556 26.339556 0 0 1-13.084444 17.218371 37.357037 37.357037 0 0 1-36.750222-2.142815 27.648 27.648 0 0 1-11.586371-12.913778q-3.015111-7.585185-10.069333-26.358519t-14.089481-38.21037q-9.064296-22.603852-18.128593-48.431407-26.168889 89.315556-47.407407 164.655407-9.064296 32.237037-18.128593 63.488t-16.611556 57.571556q-7.585185 26.358519-12.591407 44.657777t-6.049185 24.746667a81.08563 81.08563 0 0 1-19.13363 40.884148 41.851259 41.851259 0 0 1-34.228148 13.994667 35.896889 35.896889 0 0 1-30.208-19.361185 104.618667 104.618667 0 0 1-11.07437-39.822223q0-5.385481-2.522074-33.355851t-6.542223-71.016297q-4.020148-43.045926-8.552296-95.781926t-9.481481-107.614814q-11.07437-128.056889-26.187852-286.340741-28.197926 88.234667-50.346667 158.189037-9.064296 30.132148-18.621629 59.183407t-17.066667 52.736q-7.585185 23.665778-12.591408 39.822222l-6.049185 19.361186a103.860148 103.860148 0 0 1-13.596444 25.827555 28.444444 28.444444 0 0 1-26.680889 10.752 30.587259 30.587259 0 0 1-27.192889-13.444741 109.454222 109.454222 0 0 1-14.089481-30.663111q-3.015111-8.609185-11.074371-33.355851t-17.066666-50.574223q-11.07437-30.132148-23.153778-66.711703-7.054222 9.690074-15.170371 19.361185-7.054222 8.609185-15.17037 18.830222t-16.118519 19.911111a103.992889 103.992889 0 0 1-30.208 27.97037 55.808 55.808 0 0 1-33.223111 5.385482 201.159111 201.159111 0 0 0-26.680889-0.530963q-16.611556 0.530963-33.735111 0.530963-19.13363 1.080889-42.287407 1.080889v-83.930074z" fill="#2c2c2c" p-id="8155"></path></svg>