<?xml version="1.0" standalone="no"?><!DOCTYPE svg PUBLIC "-//W3C//DTD SVG 1.1//EN" "http://www.w3.org/Graphics/SVG/1.1/DTD/svg11.dtd"><svg t="1746369794346" class="icon" viewBox="0 0 1024 1024" version="1.1" xmlns="http://www.w3.org/2000/svg" p-id="49363" xmlns:xlink="http://www.w3.org/1999/xlink" width="200" height="200"><path d="M509.952 487.936c-56.832 0-102.912-46.08-102.912-102.912s46.08-102.912 102.912-102.912 102.912 46.08 102.912 102.912-46.08 102.912-102.912 102.912z m0-173.568c-38.912 0-70.656 31.744-70.656 70.656C439.296 423.936 471.04 455.68 509.952 455.68c38.912 0 70.656-31.744 70.656-70.656 0-38.912-31.744-70.656-70.656-70.656z" fill="#d81e06" p-id="49364"></path><path d="M683.52 646.656V329.728h-0.512C675.84 153.6 571.392 44.544 532.48 24.064c-14.336-7.68-30.72-7.68-45.056 0-38.4 20.48-143.36 129.536-150.528 305.664h-0.512v317.952c-38.4 13.824-66.048 73.728-66.048 150.528 0 84.48 33.792 148.992 78.848 153.088 2.56 0 4.608 0.512 4.608 0.512 8.704-0.512 15.36-7.68 15.36-15.872v-67.072h124.928v123.392c0 8.704 7.168 16.384 16.384 16.384 8.704 0 16.384-7.168 16.384-16.384v-123.392h124.928v67.072c0 8.704 7.168 16.384 16.384 16.384h3.072c47.616 0 83.456-66.048 83.456-153.6-1.024-79.872-30.208-140.8-71.168-152.064z m-380.928 151.552c0-52.736 15.36-95.232 33.792-112.64v224.768c-17.92-16.896-33.792-59.392-33.792-112.128z m223.744 37.376v-123.392c0-8.704-7.168-16.384-16.384-16.384-8.704 0-16.384 7.168-16.384 16.384v123.392H368.64V346.112c1.536-168.448 99.84-275.456 133.632-293.376 4.608-2.56 10.24-2.56 14.848 0 33.792 17.92 132.608 124.928 133.632 293.376v489.472h-124.416z m157.184 78.336v-231.936c19.456 14.336 37.888 59.392 37.888 116.224s-18.432 101.376-37.888 115.712z" p-id="49365" fill="#d81e06"></path></svg>