<?xml version="1.0" standalone="no"?><!DOCTYPE svg PUBLIC "-//W3C//DTD SVG 1.1//EN" "http://www.w3.org/Graphics/SVG/1.1/DTD/svg11.dtd"><svg t="1746361316953" class="icon" viewBox="0 0 1024 1024" version="1.1" xmlns="http://www.w3.org/2000/svg" p-id="5419" xmlns:xlink="http://www.w3.org/1999/xlink" width="200" height="200"><path d="M434.176 747.776h-0.938667a34.133333 34.133333 0 0 1-29.354666-18.346667l-116.906667-224.682666-57.173333 64a34.133333 34.133333 0 0 1-25.6 11.434666h-93.866667a34.133333 34.133333 0 0 1 0-68.266666h78.592l80.042667-89.514667A34.133333 34.133333 0 0 1 298.666667 411.221333a34.133333 34.133333 0 0 1 25.6 18.176L436.138667 643.413333l207.616-350.464a34.133333 34.133333 0 0 1 29.098666-17.066666 34.133333 34.133333 0 0 1 29.098667 16.298666L836.778667 512h76.8a34.133333 34.133333 0 1 1 0 68.266667H817.664a34.133333 34.133333 0 0 1-29.098667-16.298667l-114.944-187.733333-210.090666 354.816a34.133333 34.133333 0 0 1-29.354667 16.725333z" p-id="5420"></path></svg>