<?xml version="1.0" standalone="no"?><!DOCTYPE svg PUBLIC "-//W3C//DTD SVG 1.1//EN" "http://www.w3.org/Graphics/SVG/1.1/DTD/svg11.dtd"><svg t="1746368976201" class="icon" viewBox="0 0 1024 1024" version="1.1" xmlns="http://www.w3.org/2000/svg" p-id="16341" xmlns:xlink="http://www.w3.org/1999/xlink" width="200" height="200"><path d="M527.509333 917.333333a21.333333 21.333333 0 0 0 21.333334-21.333333v-59.413333a21.333333 21.333333 0 0 1 17.6-21.013334 306.602667 306.602667 0 0 0 121.706666-50.432 21.333333 21.333333 0 0 1 27.306667 2.410667l42.026667 42.026667a21.333333 21.333333 0 0 0 30.165333 0l21.952-21.930667a21.333333 21.333333 0 0 0 0-30.165333l-42.048-42.026667a21.333333 21.333333 0 0 1-2.410667-27.306667 306.602667 306.602667 0 0 0 50.432-121.706666 21.333333 21.333333 0 0 1 21.013334-17.6H896a21.333333 21.333333 0 0 0 21.333333-21.333334v-31.018666a21.333333 21.333333 0 0 0-21.333333-21.333334h-59.413333a21.333333 21.333333 0 0 1-21.013334-17.6 306.602667 306.602667 0 0 0-50.432-121.706666 21.333333 21.333333 0 0 1 2.410667-27.306667l42.026667-42.026667a21.333333 21.333333 0 0 0 0-30.165333l-21.930667-21.952a21.333333 21.333333 0 0 0-30.165333 0c-11.861333 11.861333-32.149333 3.477333-32.149334-13.312V189.013333c0-1.792 0.704-3.52 1.984-4.778666a64 64 0 0 1 90.496 0l21.952 21.952a64 64 0 0 1 0 90.496l-29.738666 29.738666a349.226667 349.226667 0 0 1 43.946666 106.069334H896a64 64 0 0 1 64 64v31.018666a64 64 0 0 1-64 64h-42.026667a349.226667 349.226667 0 0 1-43.946666 106.069334l29.738666 29.738666a64 64 0 0 1 0 90.496l-21.952 21.952a64 64 0 0 1-90.496 0l-29.738666-29.738666a349.226667 349.226667 0 0 1-106.069334 43.946666V896a64 64 0 0 1-64 64h-31.018666a64 64 0 0 1-64-64v-42.026667a349.226667 349.226667 0 0 1-106.069334-43.946666l-29.738666 29.738666a64 64 0 0 1-90.496 0l-21.952-21.952a64 64 0 0 1 0-90.496l29.738666-29.738666a349.184 349.184 0 0 1-43.946666-106.069334H128a64 64 0 0 1-64-64v-31.018666a64 64 0 0 1 64-64h42.026667a349.184 349.184 0 0 1 43.946666-106.069334l-29.738666-29.738666a64 64 0 0 1 0-90.496l21.952-21.952a64 64 0 0 1 90.496 0l16.768 16.768c6.997333 6.976 19.264 8.874667 30.336 2.816a349.248 349.248 0 0 1 88.704-33.813334V128a64 64 0 0 1 64-64h31.018666a64 64 0 0 1 64 64v10.666667a21.333333 21.333333 0 1 1-42.666666 0V128a21.333333 21.333333 0 0 0-21.333334-21.333333h-31.018666a21.333333 21.333333 0 0 0-21.333334 21.333333v59.413333a21.333333 21.333333 0 0 1-17.6 20.992 306.538667 306.538667 0 0 0-93.312 32.853334c-25.216 13.802667-58.709333 12.16-80.96-10.090667l-16.768-16.768a21.333333 21.333333 0 0 0-30.165333 0L214.4 236.373333a21.333333 21.333333 0 0 0 0 30.165334l42.048 42.026666a21.333333 21.333333 0 0 1 2.410667 27.306667 306.581333 306.581333 0 0 0-50.453334 121.706667 21.333333 21.333333 0 0 1-20.992 17.6H128a21.333333 21.333333 0 0 0-21.333333 21.333333v31.018667a21.333333 21.333333 0 0 0 21.333333 21.333333h59.413333a21.333333 21.333333 0 0 1 20.992 17.6 306.581333 306.581333 0 0 0 50.453334 121.706667 21.333333 21.333333 0 0 1-2.410667 27.306666l-42.026667 42.026667a21.333333 21.333333 0 0 0 0 30.165333l21.930667 21.952a21.333333 21.333333 0 0 0 30.165333 0l42.026667-42.048a21.333333 21.333333 0 0 1 27.306667-2.410666 306.602667 306.602667 0 0 0 121.706666 50.432 21.333333 21.333333 0 0 1 17.6 21.013333V896a21.333333 21.333333 0 0 0 21.333334 21.333333h31.018666z" fill="#13227a" p-id="16342"></path><path d="M618.666667 213.333333a21.333333 21.333333 0 1 0 0-42.666666 21.333333 21.333333 0 0 0 0 42.666666zM512 682.666667a170.666667 170.666667 0 1 0 0-341.333334 170.666667 170.666667 0 0 0 0 341.333334z m0-42.666667a128 128 0 1 1 0-256 128 128 0 0 1 0 256z" fill="#13227a" p-id="16343"></path></svg>