<?xml version="1.0" standalone="no"?><!DOCTYPE svg PUBLIC "-//W3C//DTD SVG 1.1//EN" "http://www.w3.org/Graphics/SVG/1.1/DTD/svg11.dtd"><svg t="1746370147098" class="icon" viewBox="0 0 1024 1024" version="1.1" xmlns="http://www.w3.org/2000/svg" p-id="63699" xmlns:xlink="http://www.w3.org/1999/xlink" width="200" height="200"><path d="M548.266667 71.253333c64.853333 81.493333 163.626667 229.12 163.626666 337.92 0 90.24-73.386667 163.626667-163.626666 163.626667s-163.626667-73.386667-163.626667-163.626667c-0.213333-108.586667 98.773333-256.426667 163.626667-337.92m0-71.253333s-209.493333 232.106667-209.493334 409.173333c0 115.626667 93.866667 209.493333 209.493334 209.493334s209.493333-93.866667 209.493333-209.493334C757.76 232.106667 548.266667 0 548.266667 0zM236.8 501.546667c59.946667 76.16 146.986667 208.426667 146.986667 306.133333 0 81.066667-65.92 147.2-147.2 147.2s-147.2-65.92-147.2-147.2c0.213333-97.493333 87.466667-229.76 147.413333-306.133333m0-74.88S41.6 642.56 41.6 807.466667C41.6 915.2 128.853333 1002.666667 236.8 1002.666667s195.2-87.253333 195.2-195.2C431.786667 642.56 236.8 426.666667 236.8 426.666667zM824.32 529.066667c49.28 63.786667 117.12 168.96 117.12 246.4 0 64.64-52.48 117.12-117.12 117.12-64.64 0-117.12-52.48-117.12-117.12 0-77.44 67.84-182.4 117.12-246.4m0-71.893334S661.333333 637.653333 661.333333 775.466667c0 90.026667 72.96 162.986667 162.986667 162.986666s162.986667-72.96 162.986667-162.986666c0.213333-137.813333-162.986667-318.293333-162.986667-318.293334z" fill="#13227a" p-id="63700"></path></svg>