<?xml version="1.0" standalone="no"?><!DOCTYPE svg PUBLIC "-//W3C//DTD SVG 1.1//EN" "http://www.w3.org/Graphics/SVG/1.1/DTD/svg11.dtd"><svg t="1746370005470" class="icon" viewBox="0 0 1113 1024" version="1.1" xmlns="http://www.w3.org/2000/svg" p-id="53303" xmlns:xlink="http://www.w3.org/1999/xlink" width="217.3828125" height="200"><path d="M648.176652 311.690288H22.263592a22.263592 22.263592 0 0 1 0-44.527184h625.91306a22.263592 22.263592 0 0 1 0 44.527184z" fill="#333333" p-id="53304"></path><path d="M648.176652 155.872974m-133.609382 0a133.609382 133.609382 0 1 0 267.218764 0 133.609382 133.609382 0 1 0-267.218764 0Z" fill="#FF505E" p-id="53305"></path><path d="M648.176652 311.690288a155.845144 155.845144 0 1 1 155.845144-155.845144 156.053865 156.053865 0 0 1-155.845144 155.845144z m0-267.163104a111.31796 111.31796 0 1 0 111.31796 111.31796 111.484937 111.484937 0 0 0-111.31796-111.31796zM957.334457 577.461918H22.263592a22.263592 22.263592 0 0 1 0-44.527184h935.070865a22.263592 22.263592 0 0 1 0 44.527184z" fill="#333333" p-id="53306"></path><path d="M957.264883 421.533285m-133.609382 0a133.609382 133.609382 0 1 0 267.218764 0 133.609382 133.609382 0 1 0-267.218764 0Z" fill="#FF505E" p-id="53307"></path><path d="M957.334457 577.461918a155.845144 155.845144 0 1 1 155.845144-155.845144 156.039951 156.039951 0 0 1-155.845144 155.845144z m0-267.163104a111.31796 111.31796 0 1 0 111.31796 111.31796 111.471022 111.471022 0 0 0-111.31796-111.429278zM826.313218 756.962129H22.263592a22.263592 22.263592 0 0 1 0-44.527185h804.049626a22.263592 22.263592 0 0 1 0 44.527185z" fill="#333333" p-id="53308"></path><path d="M826.313218 868.127026m-133.609382 0a133.609382 133.609382 0 1 0 267.218763 0 133.609382 133.609382 0 1 0-267.218763 0Z" fill="#FF505E" p-id="53309"></path><path d="M826.313218 1024a155.845144 155.845144 0 1 1 155.845144-155.845144 156.039951 156.039951 0 0 1-155.845144 155.845144z m0-267.163104a111.31796 111.31796 0 1 0 111.31796 111.31796 111.471022 111.471022 0 0 0-111.31796-111.373619z" fill="#333333" p-id="53310"></path></svg>