<?xml version="1.0" standalone="no"?><!DOCTYPE svg PUBLIC "-//W3C//DTD SVG 1.1//EN" "http://www.w3.org/Graphics/SVG/1.1/DTD/svg11.dtd"><svg t="1746370229263" class="icon" viewBox="0 0 1024 1024" version="1.1" xmlns="http://www.w3.org/2000/svg" p-id="66716" xmlns:xlink="http://www.w3.org/1999/xlink" width="200" height="200"><path d="M746.305085 208.271186H538.033898v277.694916h485.966102a277.694915 277.694915 0 0 0-277.694915-277.694916zM633.491525 390.508475V303.728814h112.81356a182.237288 182.237288 0 0 1 155.162034 86.779661zM208.271186 277.694915v208.271187h277.694916V0a277.694915 277.694915 0 0 0-277.694916 277.694915z m95.457628 0a182.237288 182.237288 0 0 1 86.779661-155.162034V390.508475H303.728814zM277.694915 815.728814h208.271187V538.033898H0a277.694915 277.694915 0 0 0 277.694915 277.694916z m112.81356-182.237289v86.779661H277.694915a182.237288 182.237288 0 0 1-155.162034-86.779661zM538.033898 1024a277.694915 277.694915 0 0 0 277.694916-277.694915V538.033898H538.033898z m95.457627-390.508475h86.779661v112.81356a182.237288 182.237288 0 0 1-86.779661 155.162034z" p-id="66717" fill="#13227a"></path></svg>