<?xml version="1.0" standalone="no"?><!DOCTYPE svg PUBLIC "-//W3C//DTD SVG 1.1//EN" "http://www.w3.org/Graphics/SVG/1.1/DTD/svg11.dtd"><svg t="1746672556997" class="icon" viewBox="0 0 1024 1024" version="1.1" xmlns="http://www.w3.org/2000/svg" p-id="24606" xmlns:xlink="http://www.w3.org/1999/xlink" width="200" height="200"><path d="M412.003087 38.972235c-7.649882 84.630588-42.646588 242.989176-187.873882 395.504941 4.336941-56.259765-8.312471-98.183529-22.287059-126.192941-7.770353-15.420235-30.539294-12.408471-33.852235 4.517647-6.746353 34.514824-24.094118 87.943529-67.523765 161.430589-83.968 142.336-73.366588 539.105882 399.36 539.105882s504.591059-413.575529 437.428706-581.451294a551.574588 551.574588 0 0 0-151.009883-213.714824 21.082353 21.082353 0 0 0-34.695529 15.36c-1.084235 35.659294-8.553412 85.955765-38.791529 119.68753-0.783059-61.861647-44.694588-244.254118-237.327059-347.919059a43.008 43.008 0 0 0-63.427765 33.731765z" fill="#FF5D50" p-id="24607"></path><path d="M732.635558 708.367059c-4.939294-52.766118-71.077647-195.162353-249.253647-288.828235a17.287529 17.287529 0 0 0-25.178353 17.588705c7.348706 54.934588 15.179294 164.683294-28.190118 216.545883 4.698353-47.344941-21.263059-86.558118-43.008-110.531765a17.287529 17.287529 0 0 0-29.876706 9.035294c-4.156235 26.081882-15.058824 65.897412-42.827294 114.748235-49.392941 86.738824-101.978353 221.123765 146.010353 345.389177a768.903529 768.903529 0 0 0 77.884235 0c185.524706-69.752471 203.354353-208.594824 194.43953-303.947294z" fill="#FFDF99" p-id="24608"></path></svg>